PathFileType	4	(X/Y/Z)	Test12_result.trc
DataRate	CameraRate	NumFrames	NumMarkers	Units	OrigDataRate	OrigDataStartFrame	OrigNumFrames
100	100	5	56	mm	100	1	493
Frame#	Time	PELO			PELA			PELL			PELP			LFEO			LFEA			LFEL			LFEP			LTIO			LTIA			LTIL			LTIP			LFOO			LFOA			LFOL			LFOP			LTOO			LTOA			LTOL			LTOP			RFEO			RFEA			RFEL			RFEP			RTIO			RTIA			RTIL			RTIP			RFOO			RFOA			RFOL			RFOP			RTOO			RTOA			RTOL			RTOP			LASI			RASI			LPSI			RPSI			LTHI			LKNE			LTIB			LANK			LHEE			LTOE			LFMH			LVMH			RTHI			RKNE			RTIB			RANK			RHEE			RTOE			RFMH			RVMH		
		X1	Y1	Z1	X2	Y2	Z2	X3	Y3	Z3	X4	Y4	Z4	X5	Y5	Z5	X6	Y6	Z6	X7	Y7	Z7	X8	Y8	Z8	X9	Y9	Z9	X10	Y10	Z10	X11	Y11	Z11	X12	Y12	Z12	X13	Y13	Z13	X14	Y14	Z14	X15	Y15	Z15	X16	Y16	Z16	X17	Y17	Z17	X18	Y18	Z18	X19	Y19	Z19	X20	Y20	Z20	X21	Y21	Z21	X22	Y22	Z22	X23	Y23	Z23	X24	Y24	Z24	X25	Y25	Z25	X26	Y26	Z26	X27	Y27	Z27	X28	Y28	Z28	X29	Y29	Z29	X30	Y30	Z30	X31	Y31	Z31	X32	Y32	Z32	X33	Y33	Z33	X34	Y34	Z34	X35	Y35	Z35	X36	Y36	Z36	X37	Y37	Z37	X38	Y38	Z38	X39	Y39	Z39	X40	Y40	Z40	X41	Y41	Z41	X42	Y42	Z42	X43	Y43	Z43	X44	Y44	Z44	X45	Y45	Z45	X46	Y46	Z46	X47	Y47	Z47	X48	Y48	Z48	X49	Y49	Z49	X50	Y50	Z50	X51	Y51	Z51	X52	Y52	Z52	X53	Y53	Z53	X54	Y54	Z54	X55	Y55	Z55	X56	Y56	Z56
	
63	0.620000	-3656.070324	864.511632	-157.062334	-3496.328624	842.181103	-140.654741	-3638.314928	873.292810	-317.975112	-3634.795747	1024.853572	-145.964833	-3505.911157	488.876696	-228.105906	-3126.304829	632.373686	-240.636243	-3514.206238	475.393552	-633.813808	-3649.715207	868.450556	-237.780500	-3471.397162	85.085811	-212.575572	-3089.690876	119.195025	-174.031298	-3431.714964	73.749219	-595.519649	-3504.175510	468.565604	-227.324668	-3353.359857	70.091026	-211.317640	-3347.449488	236.108776	-216.037613	-3337.039098	64.810380	-376.619893	-3518.640819	75.506316	-227.809322	-3298.266121	68.285921	-205.820412	-3296.295998	123.625159	-207.393737	-3292.825868	66.525704	-260.921168	-3353.359856	70.091010	-211.317640	-3786.078701	450.022095	-88.461632	-3408.295277	331.370875	76.432638	-3624.901564	413.158462	-484.254935	-3662.425197	860.572463	-76.344305	-4056.227962	148.343730	-147.584361	-3799.236752	-108.901860	-9.237688	-3917.081297	94.148118	-506.835687	-3799.413402	435.131831	-91.379679	-3981.801341	63.250371	-120.111527	-3878.912155	184.365406	-86.255803	-3938.825663	70.497396	-276.646778	-4099.987810	171.323559	-147.556655	-3942.405771	27.225921	-110.963100	-3908.109457	67.597551	-99.677872	-3928.080545	29.641615	-163.141529	-3981.801342	63.250307	-120.111458	-3589.425254	953.360738	-276.517498	-3618.046073	939.205783	-17.133093	-3789.589077	972.917937	-225.017218	-3802.127291	974.460560	-123.959623	-3561.101254	642.120556	-313.486737	-3507.096203	486.950564	-286.061762	-3495.879843	244.831021	-284.527060	-3473.840579	76.469611	-254.632532	-3516.675112	47.856045	-215.364921	-3343.210308	44.993051	-196.826763	-3301.013501	40.370646	-167.969095	-3326.737309	36.482795	-244.110696	-3760.557536	664.514978	4.844592	-3807.684310	454.963714	-35.404972	-3940.872445	324.401915	-51.318693	-4078.542978	147.659960	-110.835030	-4119.707330	150.832376	-172.456737	-3995.687243	46.643559	-138.680041	-3954.215565	34.706853	-166.866686	-3994.025295	31.082599	-98.088620
64	0.630000	-3643.012513	866.727558	-157.885041	-3483.269662	844.992030	-140.720491	-3624.435076	876.311243	-318.657111	-3622.474882	1027.103729	-145.953081	-3496.166407	489.876916	-227.769487	-3115.008411	629.484140	-243.897332	-3507.604218	474.212929	-633.551412	-3636.243243	871.058416	-238.548456	-3471.178076	85.064109	-212.790323	-3089.356176	110.343985	-166.693438	-3424.259592	73.715689	-595.228002	-3494.910193	469.532048	-227.016625	-3353.168257	69.944639	-210.793782	-3347.063698	235.972695	-214.824659	-3335.735748	65.292095	-375.998852	-3518.327029	75.592150	-228.379833	-3298.115441	68.062109	-204.931743	-3296.080563	123.404788	-206.275240	-3292.304461	66.511382	-260.000131	-3353.168269	69.944662	-210.793871	-3763.565600	448.685701	-85.622325	-3380.669815	340.119279	74.893142	-3606.699836	413.563066	-483.570533	-3649.781761	862.396643	-77.221627	-4042.564177	157.888270	-145.769271	-3794.398984	-107.810465	-12.340768	-3908.119326	103.187458	-504.903123	-3777.394825	434.273642	-88.603500	-3978.068729	64.950407	-120.154153	-3863.666194	173.191188	-82.202960	-3932.855083	71.700176	-276.077330	-4083.530701	185.297095	-145.414681	-3942.914408	24.834834	-111.733978	-3904.780267	60.915032	-99.083573	-3927.843187	27.084784	-163.708379	-3978.068381	64.950378	-120.154120	-3576.109067	956.392556	-276.557925	-3606.050066	940.946726	-17.441685	-3776.891092	975.041137	-225.454784	-3789.796641	975.697230	-124.400454	-3550.433589	643.210916	-313.256923	-3497.798974	487.640631	-285.702220	-3490.607794	245.705059	-284.738997	-3472.995828	76.606410	-254.908315	-3516.450289	48.010126	-215.842963	-3342.732910	44.651107	-196.279511	-3300.976106	40.083732	-167.275303	-3326.081569	35.853730	-244.255127	-3742.060614	663.427366	5.721481	-3784.580439	453.391127	-32.309728	-3921.808366	328.281022	-48.454969	-4064.656368	157.549922	-108.880843	-4103.720566	165.491417	-169.566695	-3992.119380	47.230410	-139.124954	-3955.387580	34.625239	-167.075047	-3992.711901	32.647544	-98.759904
65	0.640000	-3630.033290	868.933054	-158.620835	-3470.289810	847.770749	-140.753300	-3610.702170	879.228592	-319.261249	-3610.200272	1029.342654	-145.953917	-3486.878553	490.748691	-227.519505	-3104.116077	626.117374	-247.116267	-3501.440335	473.165678	-633.346401	-3622.884073	873.610929	-239.232702	-3470.921873	85.073897	-212.981813	-3088.958987	101.960861	-161.079631	-3418.487604	73.410421	-595.085196	-3486.076795	470.378560	-226.789509	-3352.934363	69.821223	-210.652799	-3346.636612	235.854228	-214.189392	-3334.980303	65.622463	-375.816832	-3518.032060	75.697465	-228.748617	-3297.901953	67.862443	-204.620840	-3295.802689	123.206777	-205.799571	-3291.917106	66.462984	-259.675549	-3352.934369	69.821254	-210.652901	-3740.760255	447.630914	-82.831251	-3353.221998	349.473528	73.700164	-3587.758927	414.196372	-482.594552	-3637.182662	864.255254	-78.008916	-4028.143933	167.651589	-144.022434	-3788.344165	-106.304543	-16.788264	-3899.068730	113.727593	-503.465334	-3755.062261	433.697988	-85.876587	-3973.077243	68.192846	-119.915090	-3848.759453	164.192157	-78.984501	-3926.191854	73.704536	-275.398981	-4066.323477	198.958772	-143.365603	-3941.994700	24.604216	-112.098275	-3900.555416	56.603940	-98.454741	-3926.366247	26.441459	-163.926236	-3973.076720	68.192848	-119.915081	-3562.905447	959.336825	-276.616448	-3594.063606	942.742329	-17.694398	-3764.268283	977.148681	-225.826471	-3777.512733	976.953925	-124.774463	-3540.071672	644.240398	-313.075338	-3488.955889	488.239733	-285.427484	-3485.778835	246.490943	-284.870218	-3472.293086	76.736161	-255.143153	-3516.282415	48.132036	-216.256688	-3342.412802	44.424718	-196.157725	-3300.964246	39.839204	-166.699755	-3325.541351	35.298592	-244.405953	-3723.534497	662.567151	6.637953	-3761.250134	452.108584	-29.293758	-3902.073083	332.200311	-45.563270	-4049.926776	167.518856	-106.947965	-4086.931678	179.887424	-166.769618	-3987.620223	49.634793	-139.201195	-3955.016795	35.246980	-166.968435	-3990.129606	35.306759	-99.057681
66	0.650000	-3617.208629	871.115891	-159.226396	-3457.464392	850.493333	-140.739686	-3597.228103	881.987036	-319.750373	-3598.029401	1031.558509	-145.973404	-3478.295527	491.427409	-227.397396	-3093.854475	622.058031	-250.244567	-3495.924037	472.326188	-633.236672	-3609.731641	876.073186	-239.792282	-3470.609702	85.121545	-213.135527	-3088.430630	94.286759	-158.004102	-3415.203456	72.775308	-595.180596	-3477.909591	471.043535	-226.681894	-3352.648819	69.668137	-210.783441	-3346.069812	235.693640	-214.180450	-3334.651739	65.576116	-375.946333	-3517.730903	75.837566	-228.924481	-3297.621512	67.611645	-204.736422	-3295.428480	122.953480	-205.868713	-3291.622415	66.247678	-259.790736	-3352.648770	69.668178	-210.783481	-3717.591679	447.003019	-80.119978	-3326.119612	359.700177	73.030602	-3567.773535	415.196216	-481.203350	-3624.685694	866.158759	-78.660456	-4012.633903	177.689007	-142.377685	-3780.529891	-104.162894	-23.142828	-3889.794870	126.427488	-502.669682	-3732.332623	433.547299	-83.230656	-3965.967203	73.596445	-119.116645	-3834.008960	158.715450	-76.894339	-3918.335704	76.785203	-274.431229	-4048.152447	212.098615	-141.509177	-3938.571656	27.429064	-111.652487	-3894.585521	55.802051	-97.578416	-3922.694539	28.491972	-163.423998	-3965.966699	73.596464	-119.116643	-3549.907300	962.142811	-276.702316	-3582.125236	944.613344	-17.864488	-3751.793339	979.226779	-226.098857	-3765.333070	978.236820	-125.047718	-3530.191060	645.177927	-312.964884	-3480.809261	488.703121	-285.278828	-3481.617477	247.143858	-284.885689	-3471.799202	76.854697	-255.318040	-3516.197164	48.207109	-216.575052	-3342.295272	44.280603	-196.322122	-3300.989921	39.655567	-166.292591	-3325.168518	34.852764	-244.562662	-3705.020012	662.048188	7.610677	-3737.656241	451.262861	-26.402797	-3881.409719	336.166052	-42.643264	-4033.991266	177.553357	-105.056481	-4069.015417	193.809554	-164.134282	-3981.387458	54.702734	-138.546664	-3952.305150	36.905987	-166.396156	-3985.613782	39.555676	-98.806102
67	0.660000	-3604.549256	873.272702	-159.700396	-3444.802411	853.155931	-140.685197	-3584.029107	884.579925	-320.126249	-3585.969510	1033.749447	-146.012879	-3470.439219	491.908988	-227.403847	-3084.244251	617.303307	-253.240766	-3491.032441	471.712839	-633.243616	-3596.799501	878.440066	-240.227305	-3470.236869	85.191657	-213.248345	-3087.713383	87.323086	-157.451102	-3414.401685	71.935667	-595.535481	-3470.428941	471.521112	-226.694235	-3352.316691	69.433495	-210.892542	-3345.304685	235.435232	-214.551366	-3334.360400	65.034747	-376.051350	-3517.384595	76.006224	-229.014456	-3297.293994	67.242593	-204.851898	-3294.956582	122.576502	-206.071521	-3291.308566	65.776321	-259.904842	-3352.316574	69.433557	-210.892521	-3694.075089	446.829414	-77.491788	-3299.396800	370.816582	72.899525	-3546.738186	416.632106	-479.416332	-3612.298718	868.105523	-79.173408	-3995.987273	187.924520	-140.830735	-3770.944012	-101.326292	-31.226606	-3880.016091	141.165871	-502.334555	-3709.218111	433.843438	-80.668715	-3956.585761	80.807493	-117.754657	-3818.915429	156.542505	-75.786875	-3909.216735	80.822212	-273.172818	-4029.038471	224.720248	-139.853855	-3932.434493	32.836570	-110.388270	-3886.544335	58.081564	-96.399067	-3916.644893	32.841459	-162.194298	-3956.585379	80.807507	-117.754646	-3537.127338	964.805342	-276.818400	-3570.239116	946.559660	-17.952901	-3739.475402	981.273128	-226.267248	-3753.264006	979.546535	-125.215338	-3520.803952	646.023998	-312.924449	-3473.374456	489.029910	-285.257997	-3478.131127	247.660746	-284.795075	-3471.509597	76.960961	-255.435248	-3516.190536	48.237475	-216.799443	-3342.333702	44.140493	-196.433594	-3301.052212	39.528147	-166.039122	-3324.953064	34.513547	-244.719875	-3686.529575	661.885097	8.641300	-3713.816159	450.875461	-23.638243	-3859.830965	340.170272	-39.711551	-4016.826566	187.577136	-103.220056	-4049.989923	207.114524	-161.703672	-3973.123771	62.015568	-137.131628	-3947.025005	39.609562	-165.351696	-3978.933140	45.335585	-98.010806
